<svg width="109" height="109" viewBox="0 0 109 109" stroke="#e50910" fill="#00000000" xmlns="http://www.w3.org/2000/svg">
<circle cx="56.4921" cy="53.8457" r="38.9582" transform="rotate(-13.3142 56.4921 53.8457)" stroke="" stroke-width="2"/>
<circle cx="47.5182" cy="43.8975" r="0.486977" fill=""/>
<circle cx="105.682" cy="64.3505" r="0.486977" fill=""/>
<circle cx="67.276" cy="53.2196" r="0.486977" fill=""/>
<path d="M47.4517 43.8975C51.6954 40.9988 58.8331 34.0327 53.4346 29.3577C46.6864 23.514 30.4075 37.6363 43.8342 53.0109C48.4488 59.1793 53.2146 74.1059 34.1642 81.5338C18.9984 87.4471 20.8497 74.5896 27.4856 68.942C34.1215 63.2944 56.1478 53.2892 56.4956 52.8022" stroke="" stroke-width="2" stroke-linecap="round"/>
<path d="M65.9487 56.3502C67.2754 51.063 56.6763 45.6009 54.8227 57.8807C53.1531 68.942 61.2926 68.3159 67.2754 53.1501C63.4724 61.4983 60.9447 76.4554 77.1541 61.707C81.7688 57.9503 96.2854 50.576 105.677 64.4202" stroke="#e50910" stroke-width="2" stroke-linecap="round"/>
</svg>
