<svg width="25" height="25" viewBox="0 0 25 25" fill="none" xmlns="http://www.w3.org/2000/svg">
<path d="M16.4303 6.53033V6.22985C16.4303 4.0163 14.6375 2.22342 12.4239 2.22342C10.2104 2.22342 8.41748 4.0163 8.41748 6.22985V11.2379" stroke="white" stroke-width="1.66129" stroke-linecap="round" stroke-linejoin="round"/>
<path d="M9.45898 14.433C10.1902 15.2443 11.2519 15.7451 12.4237 15.7451C14.6373 15.7451 16.4302 13.9522 16.4302 11.7387V11.2379" stroke="white" stroke-width="1.66129" stroke-linecap="round" stroke-linejoin="round"/>
<path d="M7.1958 17.1974C8.568 18.4695 10.4009 19.2507 12.4242 19.2507C16.651 19.2507 20.0865 15.8152 20.0865 11.5884V9.88571" stroke="white" stroke-width="1.66129" stroke-linecap="round" stroke-linejoin="round"/>
<path d="M4.76172 9.88571V11.5884C4.76172 12.6501 4.97206 13.6518 5.36268 14.5732" stroke="white" stroke-width="1.66129" stroke-linecap="round" stroke-linejoin="round"/>
<path d="M20.5072 3.06473L4.34131 19.2407" stroke="white" stroke-width="1.66129" stroke-linecap="round" stroke-linejoin="round"/>
<path d="M11.4229 3.22501V6.22983" stroke="white" stroke-width="1.66129" stroke-linecap="round" stroke-linejoin="round"/>
<path d="M12.4243 19.2507V22.2555" stroke="white" stroke-width="1.66129" stroke-linecap="round" stroke-linejoin="round"/>
</svg>
